<svg width="36" height="36" viewBox="0 0 36 36" fill="none" xmlns="http://www.w3.org/2000/svg">
<path d="M18 23.625C21.1066 23.625 23.625 21.1066 23.625 18C23.625 14.8934 21.1066 12.375 18 12.375C14.8934 12.375 12.375 14.8934 12.375 18C12.375 21.1066 14.8934 23.625 18 23.625Z" stroke="white" stroke-width="2" stroke-miterlimit="10"/>
<path d="M24.1875 5.0625H11.8125C8.08458 5.0625 5.0625 8.08458 5.0625 11.8125V24.1875C5.0625 27.9154 8.08458 30.9375 11.8125 30.9375H24.1875C27.9154 30.9375 30.9375 27.9154 30.9375 24.1875V11.8125C30.9375 8.08458 27.9154 5.0625 24.1875 5.0625Z" stroke="white" stroke-width="2" stroke-linecap="round" stroke-linejoin="round"/>
<path d="M25.3125 12.375C26.2445 12.375 27 11.6195 27 10.6875C27 9.75552 26.2445 9 25.3125 9C24.3805 9 23.625 9.75552 23.625 10.6875C23.625 11.6195 24.3805 12.375 25.3125 12.375Z" fill="#FDFDFD"/>
</svg>
