<svg width="36" height="36" viewBox="0 0 36 36" fill="none" xmlns="http://www.w3.org/2000/svg">
<path d="M18 12.375C18 9.28127 20.6016 6.70784 23.6953 6.75002C24.7788 6.76253 25.8356 7.08769 26.7386 7.68641C27.6417 8.28513 28.3526 9.13193 28.786 10.125H33.75L29.2078 14.6672C28.9147 19.2299 26.895 23.5097 23.5592 26.6365C20.2234 29.7632 15.8221 31.5023 11.25 31.5C6.75003 31.5 5.62503 29.8125 5.62503 29.8125C5.62503 29.8125 10.125 28.125 12.375 24.75C12.375 24.75 3.37503 20.25 5.62503 7.87502C5.62503 7.87502 11.25 13.5 18 14.625V12.375Z" stroke="white" stroke-width="2" stroke-linecap="round" stroke-linejoin="round"/>
</svg>
