<svg width="28" height="34" viewBox="0 0 28 34" fill="none" xmlns="http://www.w3.org/2000/svg">
<path d="M3.16663 33.6667C2.49996 33.6667 1.91663 33.4167 1.41663 32.9167C0.916626 32.4167 0.666626 31.8333 0.666626 31.1667V9.49999C0.666626 8.83333 0.916626 8.24999 1.41663 7.74999C1.91663 7.24999 2.49996 6.99999 3.16663 6.99999H7.74996V6.58333C7.74996 4.83333 8.35413 3.35416 9.56246 2.14583C10.7708 0.937495 12.25 0.333328 14 0.333328C15.75 0.333328 17.2291 0.937495 18.4375 2.14583C19.6458 3.35416 20.25 4.83333 20.25 6.58333V6.99999H24.8333C25.5 6.99999 26.0833 7.24999 26.5833 7.74999C27.0833 8.24999 27.3333 8.83333 27.3333 9.49999V31.1667C27.3333 31.8333 27.0833 32.4167 26.5833 32.9167C26.0833 33.4167 25.5 33.6667 24.8333 33.6667H3.16663ZM10.25 6.58333V6.99999H17.75V6.58333C17.75 5.52777 17.3888 4.63888 16.6666 3.91666C15.9444 3.19444 15.0555 2.83333 14 2.83333C12.9444 2.83333 12.0555 3.19444 11.3333 3.91666C10.6111 4.63888 10.25 5.52777 10.25 6.58333ZM3.16663 31.1667H24.8333V9.49999H20.25V13.25C20.25 13.6111 20.1319 13.9097 19.8958 14.1458C19.6597 14.3819 19.3611 14.5 19 14.5C18.6388 14.5 18.3402 14.3819 18.1041 14.1458C17.868 13.9097 17.75 13.6111 17.75 13.25V9.49999H10.25V13.25C10.25 13.6111 10.1319 13.9097 9.89579 14.1458C9.65968 14.3819 9.36107 14.5 8.99996 14.5C8.63885 14.5 8.34024 14.3819 8.10413 14.1458C7.86801 13.9097 7.74996 13.6111 7.74996 13.25V9.49999H3.16663V31.1667ZM3.16663 31.1667V9.49999V31.1667Z" fill="#5C373C"/>
</svg>
