<svg width="34" height="33" viewBox="0 0 34 33" fill="none" xmlns="http://www.w3.org/2000/svg">
<path d="M11.0957 11.3183C10.0635 14.7007 8.77298 15.938 4.75101 16.5527C0.736074 15.8984 0.317071 14.1495 1.03939 10.6522C2.03152 4.74413 8.63775 3.05005 9.1923 3.89509C14.1411 -1.71993 13.0308 5.13233 13.0308 5.13233C16.4252 6.36953 19.0582 9.95423 19.0582 9.95423C33.873 7.54328 37.4577 31.875 22.2305 31.875C7.00337 31.875 4.75101 31.875 4.75101 31.875C5.61383 28.9262 6.54358 27.7305 10.2074 27.6558C10.2419 23.1304 10.8654 20.9192 16.8376 19.5981C10.9882 22.557 8.0571 23.7707 7.19371 20.3595C6.68504 17.723 6.07991 17.0651 3.92621 18.6464" stroke="#5C373C" stroke-width="2" stroke-linecap="round"/>
</svg>
